#!OML:ASF F:\VICON\USERDATA\INSTALL\rory3\rory3.ASF
:FULLY-SPECIFIED
:DEGREES
29
root 0.3373913084733424 17.410165587228224 -5.474008619331491 3.815284837564218 -1.1129937046933542 -1.102086872136411
lfemur -3.8692004018325363 -0.6338760657777023 -27.927951460578797
ltibia 38.12443112661602
lfoot -10.689944168502358 -4.168613351770386
ltoes -9.868383868971666
rfemur -38.492883191601976 -5.815490710993007 20.2309300883567
rtibia 105.18743062453981
rfoot 0.5508018943058923 -2.7709434945265965
rtoes 9.39550057141836
lowerback 15.00710831292044 -0.68138926102887 -3.162835612423608
upperback -1.0740408926858955 -1.1993132125159898 0.7330615260138154
thorax -9.128137526635571 -0.4262967770520346 2.5633923108685432
lowerneck -20.328033784044106 -4.122838500985702 -2.5021461640614833
upperneck 11.919001999291261 -6.080782242566651 6.453541167994711
head 7.2712607689142255 -2.5013820602120713 1.7457886174156563
lclavicle 2.9801537496876583e-15 1.1901017953753168e-16
lhumerus -36.19852267448118 -13.157039110628105 93.77162770202301
lradius 111.14974825727273
lwrist 34.88431554521738
lhand -20.924620810483766 3.2300516681482847
lfingers 7.125019999999999
lthumb 5.138196672054294 33.127274836770916
rclavicle 2.9801019661554265e-15 1.1898187587022352e-16
rhumerus -56.34587969591856 9.66826184106665 -99.6497664000046
rradius 110.15357930196635
rwrist -15.073681666223143
rhand -15.865550933192011 38.92539224319309
rfingers 7.125019999999999
rthumb 10.267556131743124 9.250106882795002
30
root 0.34987759804905555 17.633567000542207 -4.0997560283634895 3.9498310903051808 -1.973487081633455 -0.8550615844968963
lfemur -0.680826170137717 -0.44224386714737607 -28.08269086156647
ltibia 34.30602781671277
lfoot -4.84428654657055 -6.450325215020692
ltoes -13.97050427972546
rfemur -39.66405511862378 -3.7850303217034766 21.603135768524798
rtibia 99.46044171032227
rfoot -1.2606778352176269 -2.9418869132206065
rtoes 5.16910715516781
lowerback 14.571907456755108 -0.8986665996654609 -2.887569637736317
upperback -1.2894458616054245 -1.333432507154631 1.032314287662781
thorax -9.27122001980306 -0.608912427753865 2.8450298236938205
lowerneck -20.446131384857306 -3.983329213756027 -2.5559148621697525
upperneck 12.34730965003083 -5.687334272926335 6.147708602315742
head 7.33862813643519 -2.3426766274112287 1.736628185410859
lclavicle 2.980153749687972e-15 1.1901017953770308e-16
lhumerus -36.0248621157184 -12.667049210574175 93.28553334248465
lradius 111.32327146951107
lwrist 35.17763639355169
lhand -20.828203020910806 3.2240190949283503
lfingers 7.125019999999999
lthumb 5.2411549878769454 33.07443408920971
rclavicle 2.9801019663122304e-15 1.1898187595592885e-16
rhumerus -58.430594363605316 9.755898497838777 -99.47748746122215
rradius 111.0040583482354
rwrist -15.02248749998216
rhand -15.920057258850546 38.684397094106004
rfingers 7.125019999999999
rthumb 10.268191441248849 9.074221864667283
31
root 0.37117574549440985 17.867260692665212 -1.9695935436619 3.98089534337882 -3.1508367822017984 -0.409108012519966
lfemur 1.743934947807265 0.005786074268070873 -28.217990211469843
ltibia 29.82404067173809
lfoot 0.6701403789331299 -8.585283849042177
ltoes -16.27604444658669
rfemur -38.96665382796503 -1.6613010834684947 23.1127264764982
rtibia 92.07041182084953
rfoot -3.3929948993983583 -3.229780141896392
rtoes 5.970409482421772
lowerback 13.91585896753516 -1.0662434031840475 -2.7686557900086646
upperback -1.468614778704783 -1.3136573303330583 1.2965453440015693
thorax -9.082858767092896 -0.61275818695186 3.0805779778660782
lowerneck -20.427558139537638 -3.7431120867455263 -2.574161110735194
upperneck 12.961371131361414 -5.276297502763995 5.804818369418971
head 7.41484289371956 -2.19903251647132 1.7148005451049424
lclavicle 2.9801537496851615e-15 1.1901017953616697e-16
lhumerus -36.867411509497224 -12.550253948183528 92.93216713450414
lradius 111.84435772863395
lwrist 35.16183387983419
lhand -20.824829798779813 3.1568392076004304
lfingers 7.125019999999999
lthumb 5.240244045945286 32.98668867680281
rclavicle 2.9801019662997877e-15 1.1898187594912805e-16
rhumerus -60.30278493717212 9.87873441975232 -99.17946581940262
rradius 111.7420413296796
rwrist -14.89925010248025
rhand -15.821027853486333 38.549778508439765
rfingers 7.125019999999999
rthumb 10.355775175798419 8.993636556567692
32
root 0.394461052943698 18.085547323295526 -0.2856575091098712 3.976863159716966 -4.091693377452372 -0.16496677485077238
lfemur 3.1862543555817417 0.05418492669803987 -27.985384791560058
ltibia 25.262639534661478
lfoot 5.54916538967023 -9.884594390620006
ltoes -17.86678193378591
rfemur -39.53104831062946 0.3450022074600163 23.71935438364806
rtibia 83.58951577516419
rfoot -4.906404074662534 -3.5955993071644614
rtoes 4.55894978232028
lowerback 13.49127391114371 -1.0847796053487708 -2.4355434751746126
upperback -1.6824139707602899 -1.38422532895432 1.5009822785406066
thorax -9.050129918199405 -0.46746680951984343 3.294131297074702
lowerneck -20.418349731390034 -3.634176731642283 -2.6429264268074966
upperneck 13.538326811527265 -4.920800574346278 5.417329532134208
head 7.484618256972451 -2.0855344404554748 1.6919015582836554
lclavicle 2.9801537496855583e-15 1.1901017953638396e-16
lhumerus -37.42883714387696 -12.658641869109987 93.02408243217465
lradius 112.8273583554035
lwrist 35.186220903625696
lhand -20.800604909063246 3.1668700683145374
lfingers 7.125019999999999
lthumb 5.298054297551734 33.02440238987132
rclavicle 2.9801019661921914e-15 1.1898187589031847e-16
rhumerus -61.93008092016461 9.822135864413994 -98.80784385188431
rradius 112.43499611263833
rwrist -14.934934870536907
rhand -15.638164801364768 38.57103454542789
rfingers 7.125019999999999
rthumb 10.466097877359418 8.961623313990955
33
root 0.41540533874418273 18.28274842200483 1.742561749286394 4.194802957470395 -4.6882849523578995 0.49974038720131775
lfemur 5.734205055474742 0.15041880910903016 -27.542929215227353
ltibia 21.731834595101915
lfoot 8.49993640876169 -10.968473976187289
ltoes -18.24286789827338
rfemur -39.86228800803215 1.9858381812986314 24.15833240239023
rtibia 74.80695739807092
rfoot -5.9680454687691125 -4.029723419727042
rtoes 2.9220438439714465
lowerback 13.110611302929172 -1.0068483420851857 -2.3458292891165833
upperback -1.937374083000621 -1.6114074006042975 1.6753726437297918
thorax -9.11980447443717 -0.51748298467617 3.309169107569987
lowerneck -20.30729277267919 -3.4416993137451186 -2.6724590334216454
upperneck 14.107859059757994 -4.579308217455653 5.089568048245435
head 7.581624029857785 -1.9718058205845947 1.6638487331413507
lclavicle 2.980153749680782e-15 1.1901017953377337e-16
lhumerus -38.85193445984481 -13.319561435700077 93.16837128537979
lradius 114.23665855702777
lwrist 35.131296260357765
lhand -20.78162629904288 3.1471663355465886
lfingers 7.125019999999999
lthumb 5.327184482627589 33.00061533472204
rclavicle 2.980101966007767e-15 1.189818757895164e-16
rhumerus -63.22403795038763 9.647225338274541 -98.31250857661246
rradius 113.12929854240026
rwrist -15.077965356108635
rhand -15.736764959797291 38.523443939843716
rfingers 7.125019999999999
rthumb 10.43133663342231 8.93644188135685
34
root 0.42519751185410637 18.444233264607234 3.0380418528627846 4.539684851524848 -4.647856008138284 0.7777458184546817
lfemur 7.200214267747231 -0.11757715303921712 -27.435490595990984
ltibia 20.543116742895755
lfoot 10.472809425654136 -11.469991521154721
ltoes -16.936203696298506
rfemur -40.598224064479965 2.3791843336012763 24.226640324704128
rtibia 65.74601393019834
rfoot -6.4582104221307794 -4.4884783565967865
rtoes 1.213428139599475
lowerback 12.836434354346736 -1.0614783087749986 -2.364820649260614
upperback -2.1657230929245075 -1.9334026651531588 1.8065682191817989
thorax -9.051580593327017 -0.5953862071605008 3.4642007115608306
lowerneck -20.248376522442683 -3.337027675100507 -2.728977467539962
upperneck 14.501715800698902 -4.308360003359338 4.880375283375168
head 7.658844103085279 -1.8989737793297683 1.6182443255263046
lclavicle 2.9801537496827346e-15 1.1901017953484035e-16
lhumerus -39.33697455620234 -13.780419858644887 93.69702815736045
lradius 115.87079013939747
lwrist 34.89685399938602
lhand -20.707561364850232 3.1070607723760038
lfingers 7.125019999999999
lthumb 5.422116972110025 32.99122320156221
rclavicle 2.9801019660835522e-15 1.1898187583093867e-16
rhumerus -64.20693278300153 9.358016615076174 -97.79152541593805
rradius 113.79670901404252
rwrist -15.268627251489882
rhand -15.758652205856606 38.599654758783856
rfingers 7.125019999999999
rthumb 10.477317724897915 9.079277402175865
